# xmcd
#
# Track frame offsets:
#	150
#	23547
#	48518
#	72374
#	105194
#	144542
#	197078
#	235682
#
# Disc length: 3604 seconds
#
# Revision: 2
# Processed by: cddbd v1.5.2PL0 Copyright (c) Steve Scherf et al.
# Submitted via: EZCDAudioConverter 8.0.2.1
#
DISCID=610e1208
DTITLE=Hòa Tấu. Quyền Văn Minh - Cha Con and Jazz
DYEAR=2008
DGENRE=
TTITLE0=Quyền Văn Minh - Lời giới thiệu
TTITLE1=Luu Quang Minh - Tiếng kèn gọi ai  (The horn calling)
TTITLE2=Quyền Văn Minh, Quyền Thiện Đắc - \nCô gái nhạc jazz (The Jazz girl)
TTITLE3=Hà Dũng - Gió bắc (Northern Wind)
TTITLE4=Quyền Thiện Đắc - Bến phai tình (Inconstant Love Shore)
TTITLE5=Quyền Văn Minh - Hướng tâm (Inclined to the Heart and Soul)
TTITLE6=Quyền Văn Minh - \nCảm nhận (Experience)
TTITLE7=Quyền Văn Minh - Chú tễu (little Teu)
EXTD=
EXTT0=
EXTT1=
EXTT2=
EXTT3=
EXTT4=
EXTT5=
EXTT6=
EXTT7=
PLAYORDER=
